<svg width="25" height="24" viewBox="0 0 25 24" fill="none" xmlns="http://www.w3.org/2000/svg">
<path d="M12.0833 0C10.4965 0 8.92526 0.312545 7.45924 0.919789C5.99322 1.52703 4.66117 2.41709 3.53913 3.53913C1.27306 5.80519 0 8.87863 0 12.0833C0 17.4242 3.46792 21.9554 8.265 23.5625C8.86917 23.6592 9.0625 23.2846 9.0625 22.9583C9.0625 22.6804 9.0625 21.9192 9.0625 20.9163C5.71542 21.6413 5.0025 19.2971 5.0025 19.2971C4.44667 17.8954 3.66125 17.5208 3.66125 17.5208C2.56167 16.7717 3.74583 16.7958 3.74583 16.7958C4.95417 16.8804 5.59458 18.0404 5.59458 18.0404C6.64583 19.8771 8.42208 19.3333 9.11083 19.0433C9.21958 18.2579 9.53375 17.7263 9.87208 17.4242C7.18958 17.1221 4.37417 16.0829 4.37417 11.4792C4.37417 10.1379 4.83333 9.0625 5.61875 8.20458C5.49792 7.9025 5.075 6.64583 5.73958 5.01458C5.73958 5.01458 6.75458 4.68833 9.0625 6.24708C10.0171 5.98125 11.0562 5.84833 12.0833 5.84833C13.1104 5.84833 14.1496 5.98125 15.1042 6.24708C17.4121 4.68833 18.4271 5.01458 18.4271 5.01458C19.0917 6.64583 18.6687 7.9025 18.5479 8.20458C19.3333 9.0625 19.7925 10.1379 19.7925 11.4792C19.7925 16.095 16.965 17.11 14.2704 17.4121C14.7054 17.7867 15.1042 18.5238 15.1042 19.6475C15.1042 21.2667 15.1042 22.5717 15.1042 22.9583C15.1042 23.2846 15.2975 23.6713 15.9137 23.5625C20.7108 21.9433 24.1667 17.4242 24.1667 12.0833C24.1667 10.4965 23.8541 8.92526 23.2469 7.45924C22.6396 5.99322 21.7496 4.66117 20.6275 3.53913C19.5055 2.41709 18.1734 1.52703 16.7074 0.919789C15.2414 0.312545 13.6701 0 12.0833 0Z" fill="currentColor"/>
</svg>
